# xmcd
#
# Track frame offsets:
#       182
#       22450
#       74700
#       85200
#       103750
#       123250
#       143100
#       168450
#       187950
#       239475
#       269375
#       299250
#       319375
#
# Disc length: 4749 seconds
#
# Revision: 2
# Processed by: cddbd v1.5.2PL0 Copyright (c) Steve Scherf et al.
# Submitted via: FreeDbEdit v0.1
#
DISCID=cd128b0d
DTITLE=Stevie Ray Vaughan - Mega Rare Trax, Volume 1 [CD2]
DYEAR=1900
DGENRE=
TTITLE0=Shuffle
TTITLE1=Voodoo Chile (Slight Return)
TTITLE2=Honey Bee
TTITLE3=Look at Little Sister
TTITLE4=Change It
TTITLE5=Come On (Part III)
TTITLE6=Cold Shot
TTITLE7=Thunderbird
TTITLE8=Life Without You
TTITLE9=Willy the Wimp
TTITLE10=Say What!
TTITLE11=Superstition
TTITLE12=Couldn't Stand the Weather
EXTD=
EXTT0=Possibly an early version of Say What! ?
EXTT1=
EXTT2=
EXTT3=
EXTT4=
EXTT5=
EXTT6=
EXTT7=Incorrectly titled 'Love House' on the liner \nnotes\n
EXTT8=
EXTT9=
EXTT10=
EXTT11=
EXTT12=
PLAYORDER=
